<svg width="13" height="8" viewBox="0 0 13 8" fill="none" xmlns="http://www.w3.org/2000/svg">
<path opacity="0.5" fill-rule="evenodd" clip-rule="evenodd" d="M7.16016 7.276C8.87016 5.476 10.5702 3.668 12.2802 1.865C12.4094 1.71098 12.4753 1.51368 12.4647 1.31292C12.4542 1.11215 12.3678 0.922869 12.2231 0.78327C12.0785 0.643672 11.8863 0.564151 11.6853 0.560759C11.4843 0.557368 11.2894 0.630359 11.1401 0.764998L6.58008 5.581L1.87012 0.740996C1.72082 0.606357 1.52597 0.533373 1.32495 0.536765C1.12394 0.540156 0.931785 0.61967 0.78711 0.759268C0.642435 0.898867 0.556099 1.08815 0.545533 1.28892C0.534967 1.48968 0.600881 1.68699 0.730103 1.841C2.4901 3.653 4.26014 5.465 6.02014 7.276C6.17388 7.42225 6.3779 7.50381 6.59009 7.50381C6.80228 7.50381 7.00642 7.42225 7.16016 7.276Z" fill="black"/>
</svg>
